<?xml version="1.0" encoding="UTF-8"?>
<svg version="1.1" xmlns="http://www.w3.org/2000/svg" width="473" height="181">
<path d="M0 0 C156.09 0 312.18 0 473 0 C473 59.73 473 119.46 473 181 C316.91 181 160.82 181 0 181 C0 121.27 0 61.54 0 0 Z " fill="#020202" transform="translate(0,0)"/>
<path d="M0 0 C0.495 1.485 0.495 1.485 1 3 C1.721875 3.061875 2.44375 3.12375 3.1875 3.1875 C6.88375958 4.25530832 8.32679414 6.25603281 11 9 C20.89346705 17.85773682 20.89346705 17.85773682 32 25 C32.33 25.99 32.66 26.98 33 28 C37.80002256 32.36365687 43.19977414 36.09988707 49 39 C49.33 39.99 49.66 40.98 50 42 C52.37912498 43.95517085 52.37912498 43.95517085 55.25 45.875 C59.22597044 48.68216783 62.60039512 51.51322577 66 55 C68.63855146 57.11002174 71.30301234 59.18025614 73.98828125 61.23046875 C74.65214844 61.81441406 75.31601563 62.39835937 76 63 C76 63.66 76 64.32 76 65 C76.54914063 65.23976563 77.09828125 65.47953125 77.6640625 65.7265625 C80.55085379 67.30029822 82.86189325 69.25610608 85.375 71.375 C89.74783631 75.03021176 89.74783631 75.03021176 94.4375 78.25 C97.26021306 80.17770648 98.9376146 82.29756396 101 85 C101.99 85.66 102.98 86.32 104 87 C104 87.66 104 88.32 104 89 C101.03 88.01 101.03 88.01 98 87 C98 86.34 98 85.68 98 85 C97.33613281 84.7834375 96.67226562 84.566875 95.98828125 84.34375 C91.99623643 82.54863442 88.69412402 80.09725071 85.1875 77.5 C84.49462891 77.00113281 83.80175781 76.50226563 83.08789062 75.98828125 C82.1065918 75.26705078 82.1065918 75.26705078 81.10546875 74.53125 C80.50887451 74.09361328 79.91228027 73.65597656 79.29760742 73.20507812 C78.86939697 72.80740234 78.44118652 72.40972656 78 72 C78 71.34 78 70.68 78 70 C76.68 69.67 75.36 69.34 74 69 C74 68.34 74 67.68 74 67 C72.7934375 66.7215625 72.7934375 66.7215625 71.5625 66.4375 C66.73747498 64.49056008 62.78522054 61.56651891 59 58 C59 57.34 59 56.68 59 56 C58.236875 55.71125 57.47375 55.4225 56.6875 55.125 C54 54 54 54 51 52 C51 51.34 51 50.68 51 50 C50.443125 49.731875 49.88625 49.46375 49.3125 49.1875 C46.78774666 47.89100504 44.36285516 46.57523677 42 45 C42 44.34 42 43.68 42 43 C41.278125 42.7525 40.55625 42.505 39.8125 42.25 C36.14144124 40.61841833 33.33744353 38.39559325 30.5625 35.5 C28.8168107 33.82413827 26.89791577 32.60987577 24.87109375 31.30078125 C21.57708678 29.01079311 18.51751856 26.41946241 15.40234375 23.89453125 C13.49459579 22.39004708 11.60034894 21.00371665 9.5625 19.6875 C7.3826793 18.25200832 5.82417669 16.82417669 4 15 C3.01 14.67 2.02 14.34 1 14 C0.3125 11.9375 0.3125 11.9375 0 10 C-1.32 9.67 -2.64 9.34 -4 9 C-4 8.34 -4 7.68 -4 7 C-5.65 7.33 -7.3 7.66 -9 8 C-9 8.66 -9 9.32 -9 10 C-10.32 10.33 -11.64 10.66 -13 11 C-13 11.66 -13 12.32 -13 13 C-14.32 13.33 -15.64 13.66 -17 14 C-17 14.66 -17 15.32 -17 16 C-19.96187272 18.17204 -22.50685991 19.83561997 -26 21 C-26 21.66 -26 22.32 -26 23 C-28.40201118 24.93185591 -30.81675219 26.75881979 -33.3125 28.5625 C-44.07939895 36.27398501 -44.07939895 36.27398501 -54 45 C-56.33297433 45.04092937 -58.66705225 45.04241723 -61 45 C-61.25 42.75 -61.25 42.75 -61 40 C-58.7522146 37.20964571 -57.42269984 36.14089995 -54 35 C-53.97313447 33.02090602 -53.95366625 31.04171029 -53.9375 29.0625 C-53.92589844 27.96035156 -53.91429687 26.85820313 -53.90234375 25.72265625 C-53.68737429 23.08552366 -53.68737429 23.08552366 -55 22 C-56.70563778 21.84259395 -58.41727244 21.74906608 -60.12890625 21.68359375 C-61.16337891 21.64169922 -62.19785156 21.59980469 -63.26367188 21.55664062 C-64.35228516 21.51732422 -65.44089844 21.47800781 -66.5625 21.4375 C-67.65498047 21.39431641 -68.74746094 21.35113281 -69.87304688 21.30664062 C-72.58189564 21.20017932 -75.29083992 21.09816484 -78 21 C-77.9685791 22.13953125 -77.9371582 23.2790625 -77.90478516 24.453125 C-77.79560494 28.70950684 -77.72709457 32.96576679 -77.67041016 37.22314453 C-77.64036747 39.06027082 -77.59951981 40.89725522 -77.54736328 42.73388672 C-77.47398855 45.38544824 -77.44042013 48.03510316 -77.4140625 50.6875 C-77.38309479 51.49928711 -77.35212708 52.31107422 -77.32022095 53.14746094 C-77.31646979 59.6054529 -79.54834072 63.39406111 -84 68 C-89.84792143 73 -89.84792143 73 -93 73 C-93 73.66 -93 74.32 -93 75 C-98.41176471 79 -98.41176471 79 -101 79 C-101 79.66 -101 80.32 -101 81 C-101.639375 81.103125 -102.27875 81.20625 -102.9375 81.3125 C-103.618125 81.539375 -104.29875 81.76625 -105 82 C-105.33 82.99 -105.66 83.98 -106 85 C-111.22222222 88 -111.22222222 88 -114 88 C-114 88.66 -114 89.32 -114 90 C-114.99 90 -115.98 90 -117 90 C-116.82701599 87.66471585 -116.29774631 86.30822418 -114.66796875 84.62109375 C-110.42788462 81 -110.42788462 81 -108 81 C-107.67 80.01 -107.34 79.02 -107 78 C-105.44140625 76.39453125 -105.44140625 76.39453125 -103.5625 74.8125 C-102.94503906 74.28269531 -102.32757813 73.75289063 -101.69140625 73.20703125 C-100 72 -100 72 -98 72 C-98 71.34 -98 70.68 -98 70 C-96.390625 68.4140625 -96.390625 68.4140625 -94.25 66.625 C-92.8247838 65.42676268 -91.40827338 64.21810508 -90 63 C-89.30245605 62.4829248 -88.60491211 61.96584961 -87.88623047 61.43310547 C-85.1409608 57.89189948 -85.53901802 54.50314357 -85.6796875 50.21875 C-85.69009064 49.36825073 -85.70049377 48.51775146 -85.71121216 47.64147949 C-85.74679525 44.92695331 -85.80911117 42.21394651 -85.875 39.5 C-85.93030513 36.78620152 -85.97973261 34.07262312 -86.0173645 31.35852051 C-86.04180152 29.67106726 -86.07693453 27.98372689 -86.12399292 26.29675293 C-86.24361431 19.26703661 -86.24361431 19.26703661 -84 16 C-83.34 16 -82.68 16 -82 16 C-82 15.34 -82 14.68 -82 14 C-79.21056915 12.60528458 -76.90239581 12.87026235 -73.78515625 12.8671875 C-72.54185547 12.86589844 -71.29855469 12.86460938 -70.01757812 12.86328125 C-68.05981445 12.86908203 -68.05981445 12.86908203 -66.0625 12.875 C-64.76119141 12.87113281 -63.45988281 12.86726563 -62.11914062 12.86328125 C-60.87455078 12.86457031 -59.62996094 12.86585937 -58.34765625 12.8671875 C-56.63074585 12.86887939 -56.63074585 12.86887939 -54.87915039 12.87060547 C-51.09090851 13.04085631 -49.5046234 13.46569287 -46.875 16.25 C-44.98254566 19.02559969 -44.5339719 20.75257905 -44 24 C-43.40832031 23.59007813 -42.81664063 23.18015625 -42.20703125 22.7578125 C-41.41683594 22.21898438 -40.62664062 21.68015625 -39.8125 21.125 C-39.03519531 20.59132813 -38.25789063 20.05765625 -37.45703125 19.5078125 C-35 18 -35 18 -32.26171875 16.9921875 C-31.51535156 16.66476563 -30.76898438 16.33734375 -30 16 C-29.505 14.515 -29.505 14.515 -29 13 C-25.55555556 10 -25.55555556 10 -23 10 C-23 9.34 -23 8.68 -23 8 C-21.11632409 6.57191082 -19.1661573 5.23078609 -17.1875 3.9375 C-16.10855469 3.22464844 -15.02960938 2.51179688 -13.91796875 1.77734375 C-8.70012114 -1.40086329 -5.80710021 -0.85678528 0 0 Z " fill="#EAEAEA" transform="translate(123,58)"/>
<path d="M0 0 C25 0 25 0 32 4 C36.61282531 9.5261416 36.54606957 16.75341958 36.31640625 23.62109375 C35.7282187 29.90235588 34.75392995 34.8570277 29.8125 39.0625 C28.4203125 40.0215625 28.4203125 40.0215625 27 41 C28.1446875 41.5878125 28.1446875 41.5878125 29.3125 42.1875 C33.14461666 44.77195077 34.65772647 47.2815983 35.55834961 51.80322266 C35.97700959 54.83358956 36.20140917 57.78030082 36.31640625 60.8359375 C36.35830078 61.89941406 36.40019531 62.96289062 36.44335938 64.05859375 C36.48267578 65.15300781 36.52199219 66.24742188 36.5625 67.375 C36.60568359 68.49261719 36.64886719 69.61023438 36.69335938 70.76171875 C36.79897411 73.50770199 36.9010797 76.25376881 37 79 C34.03 79 31.06 79 28 79 C26.9937763 75.9813289 26.81809484 73.76004544 26.71875 70.59765625 C26.68136719 69.54255859 26.64398438 68.48746094 26.60546875 67.40039062 C26.55326172 65.74813477 26.55326172 65.74813477 26.5 64.0625 C26.43100464 61.88659087 26.35824034 59.71079716 26.28125 57.53515625 C26.25095703 56.569729 26.22066406 55.60430176 26.18945312 54.60961914 C26.02008556 52.27666822 25.65304001 50.23904153 25 48 C19.47143821 46.23556539 14.96979766 45.66331085 9 45 C9 56.22 9 67.44 9 79 C6.03 79 3.06 79 0 79 C0 52.93 0 26.86 0 0 Z " fill="#F7F7F7" transform="translate(317,40)"/>
<path d="M0 0 C5.74665235 -0.45973219 8.50591552 0.40473242 13 4 C14.33333333 5.33333333 15.66666667 6.66666667 17 8 C17.804375 8.474375 18.60875 8.94875 19.4375 9.4375 C22.44942609 11.2740403 24.64857049 13.37983569 27 16 C27 16.66 27 17.32 27 18 C27.54527344 18.26039062 28.09054688 18.52078125 28.65234375 18.7890625 C31.37705246 20.1944863 33.96042161 21.75356884 36.5625 23.375 C37.98755859 24.25285156 37.98755859 24.25285156 39.44140625 25.1484375 C41.90321673 26.92996142 43.27643875 28.53925291 45 31 C47.08334635 32.2516467 47.08334635 32.2516467 49 33 C49 33.66 49 34.32 49 35 C49.721875 35.226875 50.44375 35.45375 51.1875 35.6875 C54.58179399 37.27150386 56.34971458 39.34231155 59 42 C61.47069472 44.12609145 64.0118258 46.15849761 66.5625 48.1875 C67.5515332 48.98704102 67.5515332 48.98704102 68.56054688 49.80273438 C69.20185547 50.31513672 69.84316406 50.82753906 70.50390625 51.35546875 C71.07955322 51.81590576 71.6552002 52.27634277 72.24829102 52.75073242 C73.99323566 54.06528798 73.99323566 54.06528798 76.07788086 55.02856445 C78.93338411 56.47173065 80.76694644 58.71619522 83 61 C85.63744522 63.36731582 88.31438342 65.68757083 91 68 C90.01 68.33 89.02 68.66 88 69 C85.8359375 67.7421875 85.8359375 67.7421875 83.375 65.875 C78.7665313 62.49319723 74.05797558 59.65116111 69 57 C69 56.34 69 55.68 69 55 C67.4221875 54.6596875 67.4221875 54.6596875 65.8125 54.3125 C61.80830167 53.18228273 59.78809951 51.08951567 57 48 C56.236875 47.443125 55.47375 46.88625 54.6875 46.3125 C54.130625 45.879375 53.57375 45.44625 53 45 C53 44.34 53 43.68 53 43 C52.0925 42.731875 51.185 42.46375 50.25 42.1875 C47.27008166 41.09868368 45.31409641 40.13608899 43 38 C43 37.34 43 36.68 43 36 C42.236875 35.71125 41.47375 35.4225 40.6875 35.125 C38 34 38 34 35 32 C35 31.34 35 30.68 35 30 C34.41605469 29.71511719 33.83210938 29.43023437 33.23046875 29.13671875 C16.23854289 20.47708578 16.23854289 20.47708578 13 14 C8.23289095 11.31780236 8.23289095 11.31780236 3 10 C0.6297483 11.07319524 0.6297483 11.07319524 -1.625 12.75 C-2.40101562 13.28109375 -3.17703125 13.8121875 -3.9765625 14.359375 C-6.22594111 16.01721738 -6.22594111 16.01721738 -8 19 C-11.18232211 21.15021764 -14.40548663 22.66489503 -18 24 C-18 24.66 -18 25.32 -18 26 C-19.609375 27.3671875 -19.609375 27.3671875 -21.75 28.875 C-23.95989253 30.43829435 -25.94314321 31.94266341 -27.8515625 33.8671875 C-30.59265614 36.58834591 -33.56503371 38.90038303 -36.625 41.25 C-37.50285156 41.93835938 -37.50285156 41.93835938 -38.3984375 42.640625 C-42.75762649 46 -42.75762649 46 -45 46 C-45.33 46.99 -45.66 47.98 -46 49 C-48.05094501 50.73519218 -50.09160398 52.34822153 -52.25 53.9375 C-53.40135207 54.80036722 -54.55239796 55.66364316 -55.703125 56.52734375 C-56.26064453 56.94097168 -56.81816406 57.35459961 -57.39257812 57.78076172 C-58.89253509 58.91848728 -60.34695461 60.11556437 -61.796875 61.31640625 C-64 63 -64 63 -66 63 C-66 63.66 -66 64.32 -66 65 C-70.92925623 69.21389931 -75.51536373 71.72405803 -82 72 C-81.38909774 65.52443609 -81.38909774 65.52443609 -79.5625 63.0625 C-78 62 -78 62 -76 62 C-75.67 61.01 -75.34 60.02 -75 59 C-73.18320498 57.46976571 -71.2962499 56.02183926 -69.375 54.625 C-68.83029053 54.22506836 -68.28558105 53.82513672 -67.72436523 53.41308594 C-64.86414289 51.31947291 -61.97131678 49.27520725 -59.0625 47.25 C-56.00848369 45.13099889 -56.00848369 45.13099889 -53.72265625 42.6875 C-50.76850796 39.7714971 -47.66989911 37.26254863 -44.375 34.75 C-43.80265625 34.30398437 -43.2303125 33.85796875 -42.640625 33.3984375 C-40.10423509 31.45190571 -38.05618467 30.01872822 -35 29 C-35 28.34 -35 27.68 -35 27 C-33.5390625 25.7109375 -33.5390625 25.7109375 -31.625 24.375 C-30.99851563 23.92898437 -30.37203125 23.48296875 -29.7265625 23.0234375 C-28 22 -28 22 -26 22 C-26 21.34 -26 20.68 -26 20 C-24.26451831 18.55473264 -22.46024037 17.1912778 -20.625 15.875 C-19.62726563 15.15054688 -18.62953125 14.42609375 -17.6015625 13.6796875 C-15 12 -15 12 -13 12 C-12.67 11.01 -12.34 10.02 -12 9 C-10.29296875 7.4296875 -10.29296875 7.4296875 -8.1875 5.875 C-7.50042969 5.35679688 -6.81335938 4.83859375 -6.10546875 4.3046875 C-4.03279755 3.02032353 -2.38201668 2.43893341 0 2 C0 1.34 0 0.68 0 0 Z " fill="#E8E8E8" transform="translate(113,78)"/>
<path d="M0 0 C4.07166495 2.90833211 7.01178079 6.03534238 8.625 10.875 C8.69302967 12.60295352 8.70995645 14.33335365 8.6875 16.0625 C8.67847656 16.96355469 8.66945313 17.86460938 8.66015625 18.79296875 C8.64855469 19.48003906 8.63695312 20.16710937 8.625 20.875 C5.985 20.875 3.345 20.875 0.625 20.875 C0.51542969 20.18792969 0.40585937 19.50085938 0.29296875 18.79296875 C0.13441406 17.89191406 -0.02414062 16.99085937 -0.1875 16.0625 C-0.33832031 15.16917969 -0.48914063 14.27585937 -0.64453125 13.35546875 C-1.44862736 10.62498196 -2.08074569 9.53136585 -4.375 7.875 C-10.0610768 7.12190906 -10.0610768 7.12190906 -14.875 9.75 C-17.04453267 14.26985974 -17.30869338 17.95656795 -16.375 22.875 C-13.46401346 29.91086626 -7.93628498 34.04306625 -2.07421875 38.6015625 C2.54761999 42.49434129 6.6957791 47.08733729 8.625 52.875 C9.90916399 68.34000345 9.90916399 68.34000345 5.23046875 74.35546875 C0.88201494 78.47115861 -3.47942282 80.08524549 -9.4375 80.375 C-14.49798043 80.14179814 -17.34150883 78.94045329 -21.375 75.875 C-25.36623083 70.72841287 -26.50665349 67.11877422 -26.4375 60.6875 C-26.42847656 59.60082031 -26.41945313 58.51414063 -26.41015625 57.39453125 C-26.39855469 56.56308594 -26.38695312 55.73164062 -26.375 54.875 C-23.735 54.875 -21.095 54.875 -18.375 54.875 C-18.32601563 55.55046875 -18.27703125 56.2259375 -18.2265625 56.921875 C-18.15179688 57.81390625 -18.07703125 58.7059375 -18 59.625 C-17.93039062 60.50671875 -17.86078125 61.3884375 -17.7890625 62.296875 C-17.37116748 64.89886288 -16.76854867 66.64933233 -15.375 68.875 C-13.06066978 70.03216511 -11.51439188 70.10710436 -8.9375 70.1875 C-8.15503906 70.22488281 -7.37257813 70.26226562 -6.56640625 70.30078125 C-4.24547977 70.05498288 -4.24547977 70.05498288 -2.6171875 68.19140625 C-0.34525698 63.95475593 -0.77614626 59.54333708 -1.375 54.875 C-4.61813958 48.12926968 -10.91435954 43.0876504 -16.5625 38.3125 C-21.83451468 33.75429775 -25.79208186 28.34855779 -26.7109375 21.296875 C-26.80727032 14.70771001 -25.99013089 9.48428374 -22.375 3.875 C-16.19915412 -2.1502155 -8.01248503 -2.67082834 0 0 Z " fill="#F5F5F5" transform="translate(390.375,40.125)"/>
<path d="M0 0 C10.23 0 20.46 0 31 0 C31 2.64 31 5.28 31 8 C23.41 8 15.82 8 8 8 C8 17.57 8 27.14 8 37 C13.94 37 19.88 37 26 37 C26 39.31 26 41.62 26 44 C20.06 44 14.12 44 8 44 C8 55.55 8 67.1 8 79 C5.36 79 2.72 79 0 79 C0 52.93 0 26.86 0 0 Z " fill="#FDFDFD" transform="translate(255,40)"/>
<path d="M0 0 C12.54 0 25.08 0 38 0 C38 2.64 38 5.28 38 8 C33.05 8 28.1 8 23 8 C23 31.43 23 54.86 23 79 C20.36 79 17.72 79 15 79 C15 55.57 15 32.14 15 8 C10.05 8 5.1 8 0 8 C0 5.36 0 2.72 0 0 Z " fill="#FCFCFC" transform="translate(407,40)"/>
<path d="M0 0 C2.97 0 5.94 0 9 0 C9 26.07 9 52.14 9 79 C6.03 79 3.06 79 0 79 C0 52.93 0 26.86 0 0 Z " fill="#FAFAFA" transform="translate(296,40)"/>
<path d="M0 0 C4.29 0 8.58 0 13 0 C18.02484785 5.02484785 18.20197116 7.07045219 18.25 13.8125 C18.270625 14.52470703 18.29125 15.23691406 18.3125 15.97070312 C18.34618584 20.5225022 17.84122229 23.40864192 15 27 C12 29 12 29 0 29 C0 19.43 0 9.86 0 0 Z " fill="#050505" transform="translate(326,48)"/>
<path d="M0 0 C1.67542976 0.28604898 3.34385343 0.61781233 5 1 C5.33 2.32 5.66 3.64 6 5 C5.34 5 4.68 5 4 5 C3.67 4.34 3.34 3.68 3 3 C2.34 3 1.68 3 1 3 C1.36100891 6.24908017 1.63290961 7.65515751 4.0625 9.9375 C6 12 6 12 6.3125 15.1875 C6 18 6 18 5 19 C2.13732433 19.07325168 -0.700719 19.09238205 -3.5625 19.0625 C-4.36880859 19.05798828 -5.17511719 19.05347656 -6.00585938 19.04882812 C-8.00393756 19.03700518 -10.00197783 19.01906914 -12 19 C-12.33 18.34 -12.66 17.68 -13 17 C-13.66 17.66 -14.32 18.32 -15 19 C-17.5625 19.1875 -17.5625 19.1875 -20 19 C-21.82116003 17.17883997 -21.1323508 14.69328236 -21.13671875 12.2734375 C-21.13285156 11.52320313 -21.12898438 10.77296875 -21.125 10 C-21.12886719 9.24976563 -21.13273437 8.49953125 -21.13671875 7.7265625 C-21.12661053 2.12661053 -21.12661053 2.12661053 -20 1 C-18.00045254 0.95745644 -15.99958364 0.95919217 -14 1 C-13.34 1 -12.68 1 -12 1 C-11.15308594 1.01160156 -10.30617188 1.02320313 -9.43359375 1.03515625 C-8.44488281 1.04417969 -7.45617187 1.05320313 -6.4375 1.0625 C-5.44621094 1.07410156 -4.45492188 1.08570313 -3.43359375 1.09765625 C-1.05151988 1.27758185 -1.05151988 1.27758185 0 0 Z " fill="#101010" transform="translate(433,129)"/>
<path d="M0 0 C-2.94326239 4.41489359 -7.09309008 5.36436336 -12 7 C-12.33 8.98 -12.66 10.96 -13 13 C-12.34 13 -11.68 13 -11 13 C-9.50178941 16.37097383 -9 18.20442119 -9 22 C-8.34 22 -7.68 22 -7 22 C-5.50915168 26.47254497 -5.50915168 30.52745503 -7 35 C-8.25 36.6875 -8.25 36.6875 -10 38 C-12.625 38.25 -12.625 38.25 -15 38 C-17.11925604 35.88074396 -16.41831017 31.3803907 -16.5625 28.4375 C-16.62727539 27.22803711 -16.62727539 27.22803711 -16.69335938 25.99414062 C-16.79975262 23.99631195 -16.90040888 21.9981793 -17 20 C-17.66 20 -18.32 20 -19 20 C-19.93249614 17.20251159 -20.13476152 15.45679119 -20.125 12.5625 C-20.12757812 11.80066406 -20.13015625 11.03882813 -20.1328125 10.25390625 C-19.99941067 7.98999867 -19.76861257 6.13503492 -19 4 C-13.01872866 -0.78501707 -7.43040362 -0.43923568 0 0 Z " fill="#E4E4E4" transform="translate(61,22)"/>
<path d="M0 0 C1.65 0 3.3 0 5 0 C5 0.99 5 1.98 5 3 C5.721875 3.061875 6.44375 3.12375 7.1875 3.1875 C10.8589027 4.24812745 12.47702938 6.19669931 15 9 C15.33 9.33 15.66 9.66 16 10 C16.13568319 13.66344611 16.16461426 16.50615721 15 20 C14.34 20 13.68 20 13 20 C12.67 21.65 12.34 23.3 12 25 C10.00045254 25.04254356 7.99958364 25.04080783 6 25 C5 24 5 24 4.875 21.3125 C5 18 5 18 5.875 15.125 C6.04797588 10.80060302 4.12909245 9.08493859 1.34765625 5.9296875 C0 4 0 4 0 0 Z " fill="#E0E0E0" transform="translate(58,35)"/>
<path d="M0 0 C2.5 0.375 2.5 0.375 5 1 C5.66 1 6.32 1 7 1 C9.66666667 1 12.33333333 1 15 1 C15 1.33 15 1.66 15 2 C13.35 2 11.7 2 10 2 C10 4.31 10 6.62 10 9 C11.32 9.33 12.64 9.66 14 10 C12.68 10 11.36 10 10 10 C10 12.31 10 14.62 10 17 C11.65 17 13.3 17 15 17 C15 17.66 15 18.32 15 19 C12.36 19 9.72 19 7 19 C6.67 18.34 6.34 17.68 6 17 C5.34 17.66 4.68 18.32 4 19 C1.375 18.625 1.375 18.625 -1 18 C-1.33 16.68 -1.66 15.36 -2 14 C-1.34 14 -0.68 14 0 14 C0 14.99 0 15.98 0 17 C1.32 17 2.64 17 4 17 C2.96160516 13.9713484 1.96780263 11.96212074 -0.125 9.5 C-2 7 -2 7 -2.375 4.3125 C-2 2 -2 2 0 0 Z " fill="#1D1D1D" transform="translate(369,129)"/>
<path d="M0 0 C1.546875 0.0309375 1.546875 0.0309375 3.125 0.0625 C4.115 0.0625 5.105 0.0625 6.125 0.0625 C6.125 6.0025 6.125 11.9425 6.125 18.0625 C5.465 17.4025 4.805 16.7425 4.125 16.0625 C3.465 16.7225 2.805 17.3825 2.125 18.0625 C-0.4375 18.25 -0.4375 18.25 -2.875 18.0625 C-4.69616003 16.24133997 -4.0073508 13.75578236 -4.01171875 11.3359375 C-4.00785156 10.58570313 -4.00398438 9.83546875 -4 9.0625 C-4.00386719 8.31226563 -4.00773437 7.56203125 -4.01171875 6.7890625 C-3.99962107 0.08694828 -3.99962107 0.08694828 0 0 Z " fill="#0E0E0E" transform="translate(415.875,129.9375)"/>
<path d="M0 0 C4.75 0.75 4.75 0.75 7 3 C7.265625 5.93359375 7.265625 5.93359375 7.25 9.4375 C7.25515625 10.59121094 7.2603125 11.74492187 7.265625 12.93359375 C7 16 7 16 5 19 C2.5 19.3125 2.5 19.3125 0 19 C-2 17 -2 17 -2.265625 13.84765625 C-2.26046875 12.59855469 -2.2553125 11.34945312 -2.25 10.0625 C-2.25515625 8.81597656 -2.2603125 7.56945312 -2.265625 6.28515625 C-2 3 -2 3 0 0 Z " fill="#D4D4D4" transform="translate(310,129)"/>
<path d="M0 0 C2.375 0.8125 2.375 0.8125 3.375 2.8125 C3.49783119 5.14343612 3.55054232 7.47836039 3.5625 9.8125 C3.57667969 11.070625 3.59085937 12.32875 3.60546875 13.625 C3.375 16.8125 3.375 16.8125 1.375 18.8125 C-1.125 19.125 -1.125 19.125 -3.625 18.8125 C-5.99684142 15.25473788 -5.92324394 13.53229393 -5.9375 9.3125 C-5.95425781 8.1678125 -5.97101563 7.023125 -5.98828125 5.84375 C-5.625 2.8125 -5.625 2.8125 -4.26953125 0.89453125 C-2.625 -0.1875 -2.625 -0.1875 0 0 Z " fill="#CBCBCB" transform="translate(323.625,129.1875)"/>
<path d="M0 0 C1.98 0 3.96 0 6 0 C8 2 8 2 8.16015625 4.12890625 C8.12792969 4.93199219 8.09570312 5.73507813 8.0625 6.5625 C8.00809809 8.04081272 7.97973733 9.52082541 8 11 C8.33 11.33 8.66 11.66 9 12 C9.04092937 14.33297433 9.04241723 16.66705225 9 19 C8.01 19 7.02 19 6 19 C5.67 16.69 5.34 14.38 5 12 C4.01 11.67 3.02 11.34 2 11 C2 13.64 2 16.28 2 19 C1.34 19 0.68 19 0 19 C0 12.73 0 6.46 0 0 Z " fill="#D1D1D1" transform="translate(386,129)"/>
<path d="M0 0 C1.98 0 3.96 0 6 0 C8 2 8 2 8.16015625 4.12890625 C8.12792969 4.93199219 8.09570312 5.73507813 8.0625 6.5625 C8.00809809 8.04081272 7.97973733 9.52082541 8 11 C8.33 11.33 8.66 11.66 9 12 C9.04092937 14.33297433 9.04241723 16.66705225 9 19 C8.01 19 7.02 19 6 19 C5.67 16.69 5.34 14.38 5 12 C4.01 11.67 3.02 11.34 2 11 C2 13.64 2 16.28 2 19 C1.34 19 0.68 19 0 19 C0 12.73 0 6.46 0 0 Z " fill="#D1D1D1" transform="translate(253,129)"/>
<path d="M0 0 C2.31 0 4.62 0 7 0 C8 1 8 1 8.0625 4.5625 C8.041875 5.696875 8.02125 6.83125 8 8 C7.34 8 6.68 8 6 8 C6 8.66 6 9.32 6 10 C6.66 10 7.32 10 8 10 C8 12.64 8 15.28 8 18 C7.34 18 6.68 18 6 18 C5.67 15.69 5.34 13.38 5 11 C4.01 10.67 3.02 10.34 2 10 C2 12.64 2 15.28 2 18 C1.34 18 0.68 18 0 18 C0 12.06 0 6.12 0 0 Z " fill="#E6E6E6" transform="translate(298,130)"/>
<path d="M0 0 C0.66 0 1.32 0 2 0 C2 6.27 2 12.54 2 19 C1.01 19 0.02 19 -1 19 C-1.99 15.7 -2.98 12.4 -4 9 C-4.33 12.3 -4.66 15.6 -5 19 C-5.66 19 -6.32 19 -7 19 C-7 13.06 -7 7.12 -7 1 C-6.01 1 -5.02 1 -4 1 C-3.01 3.64 -2.02 6.28 -1 9 C-0.67 6.03 -0.34 3.06 0 0 Z " fill="#DADADA" transform="translate(349,129)"/>
<path d="M0 0 C0.47308594 0.36351563 0.94617188 0.72703125 1.43359375 1.1015625 C5.12466645 3.90764116 8.84112851 6.56678603 12.75 9.0625 C16.21635832 11.33171395 18.55635902 13.6164971 21 17 C21.99 17.66 22.98 18.32 24 19 C24 19.66 24 20.32 24 21 C22.02 20.34 20.04 19.68 18 19 C18 18.34 18 17.68 18 17 C17.33613281 16.7834375 16.67226562 16.566875 15.98828125 16.34375 C11.99623643 14.54863442 8.69412402 12.09725071 5.1875 9.5 C4.49462891 9.00113281 3.80175781 8.50226563 3.08789062 7.98828125 C2.43369141 7.50746094 1.77949219 7.02664062 1.10546875 6.53125 C0.21057739 5.87479492 0.21057739 5.87479492 -0.70239258 5.20507812 C-1.34470825 4.60856445 -1.34470825 4.60856445 -2 4 C-2 3.34 -2 2.68 -2 2 C-1.34 2 -0.68 2 0 2 C0 1.34 0 0.68 0 0 Z " fill="#D8D8D8" transform="translate(203,126)"/>
<path d="M0 0 C0 5.28 0 10.56 0 16 C-2.31 15.67 -4.62 15.34 -7 15 C-7 10.05 -7 5.1 -7 0 C-2 -1 -2 -1 0 0 Z " fill="#101010" transform="translate(386,131)"/>
<path d="M0 0 C1.32 0 2.64 0 4 0 C4.50354867 2.43681587 5.00296756 4.87435439 5.5 7.3125 C5.64308594 8.00279297 5.78617187 8.69308594 5.93359375 9.40429688 C6.52625044 12.32524773 7 15.01108122 7 18 C6.34 18 5.68 18 5 18 C4.67 17.01 4.34 16.02 4 15 C2.35 14.67 0.7 14.34 -1 14 C-1 15.32 -1 16.64 -1 18 C-1.66 18 -2.32 18 -3 18 C-2.41509121 11.85845775 -1.45933748 5.99320151 0 0 Z " fill="#DADADA" transform="translate(266,130)"/>
<path d="M0 0 C0.99 0.33 1.98 0.66 3 1 C3 1.66 3 2.32 3 3 C5.31 3.66 7.62 4.32 10 5 C10 5.66 10 6.32 10 7 C10.99 7 11.98 7 13 7 C13.33 6.34 13.66 5.68 14 5 C17.85817949 6.5718509 20.110257 9.04458102 23 12 C25.63744522 14.36731582 28.31438342 16.68757083 31 19 C30.01 19.33 29.02 19.66 28 20 C25.8359375 18.7421875 25.8359375 18.7421875 23.375 16.875 C18.7665313 13.49319723 14.05797558 10.65116111 9 8 C9 7.34 9 6.68 9 6 C7.88625 5.7525 6.7725 5.505 5.625 5.25 C2 4 2 4 0.5625 1.875 C0.376875 1.25625 0.19125 0.6375 0 0 Z " fill="#B6B6B6" transform="translate(173,127)"/>
<path d="M0 0 C0.66 0.33 1.32 0.66 2 1 C-0.31 3.97 -2.62 6.94 -5 10 C-4.34 10.33 -3.68 10.66 -3 11 C-3.639375 11.103125 -4.27875 11.20625 -4.9375 11.3125 C-5.618125 11.539375 -6.29875 11.76625 -7 12 C-7.33 12.99 -7.66 13.98 -8 15 C-13.22222222 18 -13.22222222 18 -16 18 C-16 18.66 -16 19.32 -16 20 C-16.99 20 -17.98 20 -19 20 C-18.82701599 17.66471585 -18.29774631 16.30822418 -16.66796875 14.62109375 C-12.42788462 11 -12.42788462 11 -10 11 C-9.67 10.01 -9.34 9.02 -9 8 C-7.44140625 6.39453125 -7.44140625 6.39453125 -5.5625 4.8125 C-4.94503906 4.28269531 -4.32757813 3.75289062 -3.69140625 3.20703125 C-2 2 -2 2 0 2 C0 1.34 0 0.68 0 0 Z " fill="#C6C6C6" transform="translate(25,128)"/>
<path d="M0 0 C3 0.125 3 0.125 4 1.125 C4.04063832 2.79117115 4.042721 4.45888095 4 6.125 C3.34 6.125 2.68 6.125 2 6.125 C1.67 4.805 1.34 3.485 1 2.125 C0.34 2.125 -0.32 2.125 -1 2.125 C-1.33 6.745 -1.66 11.365 -2 16.125 C-1.01 15.795 -0.02 15.465 1 15.125 C1.33 13.475 1.66 11.825 2 10.125 C1.34 10.125 0.68 10.125 0 10.125 C0 9.465 0 8.805 0 8.125 C1.32 8.125 2.64 8.125 4 8.125 C4.1953125 14.1796875 4.1953125 14.1796875 4 16.125 C2 18.125 2 18.125 -0.5625 18.3125 C-3 18.125 -3 18.125 -4 17.125 C-4.09981214 14.4476862 -4.13879875 11.80195825 -4.125 9.125 C-4.12886719 8.37476563 -4.13273437 7.62453125 -4.13671875 6.8515625 C-4.12466153 0.1718609 -4.12466153 0.1718609 0 0 Z " fill="#E8E8E8" transform="translate(357,129.875)"/>
<path d="M0 0 C0.99 0.33 1.98 0.66 3 1 C3.66 4.63 4.32 8.26 5 12 C5.99 8.37 6.98 4.74 8 1 C8.66 1.33 9.32 1.66 10 2 C9.01 7.61 8.02 13.22 7 19 C5.68 19 4.36 19 3 19 C1.93034128 12.67551301 0.86670454 6.35583327 0 0 Z " fill="#D7D7D7" transform="translate(396,129)"/>
<path d="M0 0 C2.625 0.375 2.625 0.375 5 1 C5.33 2.32 5.66 3.64 6 5 C5.34 5 4.68 5 4 5 C3.67 4.34 3.34 3.68 3 3 C2.34 3 1.68 3 1 3 C1.36100891 6.24908017 1.63290961 7.65515751 4.0625 9.9375 C6 12 6 12 6.3125 15.1875 C6 18 6 18 5 19 C2.5625 19.1875 2.5625 19.1875 0 19 C-0.66 18.34 -1.32 17.68 -2 17 C-2 15.68 -2 14.36 -2 13 C-1.34 13 -0.68 13 0 13 C0.33 13.99 0.66 14.98 1 16 C1.99 16.33 2.98 16.66 4 17 C3.81584568 14.05908413 3.81584568 14.05908413 3 11 C2.34 10.690625 1.68 10.38125 1 10.0625 C0.34 9.711875 -0.32 9.36125 -1 9 C-1.875 5.5 -1.875 5.5 -2 2 C-1.34 1.34 -0.68 0.68 0 0 Z " fill="#DEDEDE" transform="translate(433,129)"/>
<path d="M0 0 C3 0.125 3 0.125 4 1.125 C4.04063832 2.79117115 4.042721 4.45888095 4 6.125 C3.34 6.125 2.68 6.125 2 6.125 C1.67 4.805 1.34 3.485 1 2.125 C0.34 2.125 -0.32 2.125 -1 2.125 C-1.33 6.745 -1.66 11.365 -2 16.125 C-1.01 15.795 -0.02 15.465 1 15.125 C1.73323796 13.10991642 1.73323796 13.10991642 2 11.125 C2.66 11.125 3.32 11.125 4 11.125 C4.125 13.5 4.125 13.5 4 16.125 C2 18.125 2 18.125 -0.5625 18.3125 C-3 18.125 -3 18.125 -4 17.125 C-4.09981214 14.4476862 -4.13879875 11.80195825 -4.125 9.125 C-4.12886719 8.37476563 -4.13273437 7.62453125 -4.13671875 6.8515625 C-4.12466153 0.1718609 -4.12466153 0.1718609 0 0 Z " fill="#EAEAEA" transform="translate(416,129.875)"/>
<path d="M0 0 C2.625 0.375 2.625 0.375 5 1 C5.33 2.32 5.66 3.64 6 5 C5.34 5 4.68 5 4 5 C3.67 4.34 3.34 3.68 3 3 C2.34 3 1.68 3 1 3 C1.36230835 6.26077519 1.6624083 7.67263835 4.0625 10 C6 12 6 12 6.375 14.625 C6 17 6 17 4 19 C1.375 18.625 1.375 18.625 -1 18 C-1.33 16.68 -1.66 15.36 -2 14 C-1.34 14 -0.68 14 0 14 C0 14.99 0 15.98 0 17 C1.32 17 2.64 17 4 17 C2.96160516 13.9713484 1.96780263 11.96212074 -0.125 9.5 C-2 7 -2 7 -2.375 4.3125 C-2 2 -2 2 0 0 Z " fill="#E3E3E3" transform="translate(369,129)"/>
<path d="M0 0 C2.64 0 5.28 0 8 0 C8 0.66 8 1.32 8 2 C6.02 2 4.04 2 2 2 C2 4.31 2 6.62 2 9 C3.65 9 5.3 9 7 9 C7 9.33 7 9.66 7 10 C5.35 10 3.7 10 2 10 C2 12.31 2 14.62 2 17 C3.98 17 5.96 17 8 17 C8 17.66 8 18.32 8 19 C5.36 19 2.72 19 0 19 C0 12.73 0 6.46 0 0 Z " fill="#D4D4D4" transform="translate(284,129)"/>
<path d="M0 0 C1.32 0.33 2.64 0.66 4 1 C4.13277344 1.56589844 4.26554687 2.13179687 4.40234375 2.71484375 C4.57894531 3.44832031 4.75554687 4.18179688 4.9375 4.9375 C5.19853516 6.03384766 5.19853516 6.03384766 5.46484375 7.15234375 C5.83887569 8.99969898 5.83887569 8.99969898 7 10 C7.04092937 12.33297433 7.04241723 14.66705225 7 17 C6.01 17 5.02 17 4 17 C3.896875 15.88625 3.79375 14.7725 3.6875 13.625 C3.460625 12.42875 3.23375 11.2325 3 10 C2.01 9.34 1.02 8.68 0 8 C-0.40843923 5.28796348 -0.13336867 2.7562858 0 0 Z " fill="#ABABAB" transform="translate(388,131)"/>
<path d="M0 0 C1.32 0.33 2.64 0.66 4 1 C4.13277344 1.56589844 4.26554687 2.13179687 4.40234375 2.71484375 C4.57894531 3.44832031 4.75554687 4.18179688 4.9375 4.9375 C5.19853516 6.03384766 5.19853516 6.03384766 5.46484375 7.15234375 C5.83887569 8.99969898 5.83887569 8.99969898 7 10 C7.04092937 12.33297433 7.04241723 14.66705225 7 17 C6.01 17 5.02 17 4 17 C3.896875 15.88625 3.79375 14.7725 3.6875 13.625 C3.460625 12.42875 3.23375 11.2325 3 10 C2.01 9.34 1.02 8.68 0 8 C-0.40843923 5.28796348 -0.13336867 2.7562858 0 0 Z " fill="#ABABAB" transform="translate(255,131)"/>
<path d="M0 0 C2.31 0 4.62 0 7 0 C7 0.33 7 0.66 7 1 C5.35 1 3.7 1 2 1 C2 3.31 2 5.62 2 8 C3.32 8.33 4.64 8.66 6 9 C4.68 9 3.36 9 2 9 C2 11.31 2 13.62 2 16 C3.65 16 5.3 16 7 16 C7 16.66 7 17.32 7 18 C4.69 18 2.38 18 0 18 C0 12.06 0 6.12 0 0 Z " fill="#F8F8F8" transform="translate(422,130)"/>
<path d="M0 0 C2.31 0 4.62 0 7 0 C7 0.33 7 0.66 7 1 C5.35 1 3.7 1 2 1 C2 3.31 2 5.62 2 8 C3.32 8.33 4.64 8.66 6 9 C4.68 9 3.36 9 2 9 C2 11.31 2 13.62 2 16 C3.65 16 5.3 16 7 16 C7 16.66 7 17.32 7 18 C4.69 18 2.38 18 0 18 C0 12.06 0 6.12 0 0 Z " fill="#F8F8F8" transform="translate(377,130)"/>
<path d="M0 0 C1.32 0 2.64 0 4 0 C4 4.29 4 8.58 4 13 C2.68 13.33 1.36 13.66 0 14 C0 9.38 0 4.76 0 0 Z " fill="#101010" transform="translate(321,132)"/>
<path d="M0 0 C1.32 0 2.64 0 4 0 C4 4.62 4 9.24 4 14 C2.68 13.67 1.36 13.34 0 13 C0 8.71 0 4.42 0 0 Z " fill="#0F0F0F" transform="translate(310,132)"/>
<path d="M0 0 C3.83555225 1.5626324 6.13609725 4.06449968 9 7 C9.763125 7.556875 10.52625 8.11375 11.3125 8.6875 C12.1478125 9.3371875 12.1478125 9.3371875 13 10 C13 10.66 13 11.32 13 12 C11.02 11.34 9.04 10.68 7 10 C7 9.34 7 8.68 7 8 C6.2575 7.7525 5.515 7.505 4.75 7.25 C1.79875938 5.90852699 0.15185026 4.39094474 -2 2 C-1.34 1.67 -0.68 1.34 0 1 C0 0.67 0 0.34 0 0 Z " fill="#ACACAC" transform="translate(214,135)"/>
<path d="M0 0 C2.31 0 4.62 0 7 0 C7 0.33 7 0.66 7 1 C5.35 1 3.7 1 2 1 C2 3.31 2 5.62 2 8 C3.32 8 4.64 8 6 8 C6 8.66 6 9.32 6 10 C4.68 10 3.36 10 2 10 C2 12.64 2 15.28 2 18 C1.34 18 0.68 18 0 18 C0 12.06 0 6.12 0 0 Z " fill="#F1F1F1" transform="translate(329,130)"/>
<path d="M0 0 C0.66 0 1.32 0 2 0 C2.33 2.97 2.66 5.94 3 9 C1.35 9 -0.3 9 -2 9 C-2 10.65 -2 12.3 -2 14 C-2.66 14 -3.32 14 -4 14 C-3.88490339 12.58249437 -3.75746342 11.16598831 -3.625 9.75 C-3.55539062 8.96109375 -3.48578125 8.1721875 -3.4140625 7.359375 C-2.9151578 4.51655952 -2.07250561 2.07250561 0 0 Z " fill="#CBCBCB" transform="translate(267,134)"/>
<path d="M0 0 C2.31 0 4.62 0 7 0 C6.67 0.99 6.34 1.98 6 3 C4.68 2.67 3.36 2.34 2 2 C2.185625 3.155 2.37125 4.31 2.5625 5.5 C3.1235724 9.86389648 2.69632186 13.66733065 2 18 C1.34 18 0.68 18 0 18 C0 12.06 0 6.12 0 0 Z " fill="#EAEAEA" transform="translate(298,130)"/>
<path d="M0 0 C2.97 0 5.94 0 9 0 C9 0.66 9 1.32 9 2 C8.01 2 7.02 2 6 2 C6 7.28 6 12.56 6 18 C5.34 18 4.68 18 4 18 C4 12.39 4 6.78 4 1 C2.68 0.67 1.36 0.34 0 0 Z " fill="#CBCBCB" transform="translate(274,130)"/>
<path d="M0 0 C0.66 0 1.32 0 2 0 C2 6.27 2 12.54 2 19 C1.01 19 0.02 19 -1 19 C-0.67 12.73 -0.34 6.46 0 0 Z " fill="#D8D8D8" transform="translate(349,129)"/>
<path d="M0 0 C0.99 0.33 1.98 0.66 3 1 C3.05384521 3.29141286 3.09272087 5.58318188 3.125 7.875 C3.14820313 9.15117187 3.17140625 10.42734375 3.1953125 11.7421875 C3 15 3 15 1 17 C-1.625 17.125 -1.625 17.125 -4 17 C-4 16.34 -4 15.68 -4 15 C-2.68 14.67 -1.36 14.34 0 14 C0 9.38 0 4.76 0 0 Z " fill="#E7E7E7" transform="translate(324,131)"/>
<path d="M0 0 C0.99 0.33 1.98 0.66 3 1 C3 1.66 3 2.32 3 3 C5.31 3.66 7.62 4.32 10 5 C10 5.66 10 6.32 10 7 C10.99 7 11.98 7 13 7 C13.33 6.34 13.66 5.68 14 5 C15.32 5.66 16.64 6.32 18 7 C17.01 7.66 16.02 8.32 15 9 C15.99 10.485 15.99 10.485 17 12 C14.33333333 10.66666667 11.66666667 9.33333333 9 8 C9 7.34 9 6.68 9 6 C7.88625 5.7525 6.7725 5.505 5.625 5.25 C2 4 2 4 0.5625 1.875 C0.376875 1.25625 0.19125 0.6375 0 0 Z " fill="#969696" transform="translate(173,127)"/>
<path d="M0 0 C2.625 0.375 2.625 0.375 5 1 C5.33 2.32 5.66 3.64 6 5 C5.34 5 4.68 5 4 5 C3.67 4.34 3.34 3.68 3 3 C2.34 3 1.68 3 1 3 C1.33 5.64 1.66 8.28 2 11 C-1.89847716 7.7106599 -1.89847716 7.7106599 -2.375 4.375 C-2 2 -2 2 0 0 Z " fill="#D4D4D4" transform="translate(433,129)"/>
<path d="M0 0 C3 0.125 3 0.125 4 1.125 C4.04063832 2.79117115 4.042721 4.45888095 4 6.125 C3.34 6.125 2.68 6.125 2 6.125 C1.67 4.805 1.34 3.485 1 2.125 C0.34 2.125 -0.32 2.125 -1 2.125 C-1.33 6.085 -1.66 10.045 -2 14.125 C-2.33 14.125 -2.66 14.125 -3 14.125 C-3.19393875 11.97973901 -3.37998676 9.83376323 -3.5625 7.6875 C-3.71912109 5.89505859 -3.71912109 5.89505859 -3.87890625 4.06640625 C-3.91886719 3.09574219 -3.95882813 2.12507812 -4 1.125 C-3 0.125 -3 0.125 0 0 Z " fill="#D0D0D0" transform="translate(416,129.875)"/>
<path d="M0 0 C3 0.125 3 0.125 4 1.125 C4.04063832 2.79117115 4.042721 4.45888095 4 6.125 C3.34 6.125 2.68 6.125 2 6.125 C1.67 4.805 1.34 3.485 1 2.125 C0.34 2.125 -0.32 2.125 -1 2.125 C-1.33 6.085 -1.66 10.045 -2 14.125 C-2.33 14.125 -2.66 14.125 -3 14.125 C-3.19393875 11.97973901 -3.37998676 9.83376323 -3.5625 7.6875 C-3.71912109 5.89505859 -3.71912109 5.89505859 -3.87890625 4.06640625 C-3.91886719 3.09574219 -3.95882813 2.12507812 -4 1.125 C-3 0.125 -3 0.125 0 0 Z " fill="#CFCFCF" transform="translate(357,129.875)"/>
<path d="M0 0 C0.66 0.33 1.32 0.66 2 1 C2 5.62 2 10.24 2 15 C1.01 15 0.02 15 -1 15 C-1.02685412 12.68756208 -1.04632841 10.3750373 -1.0625 8.0625 C-1.07410156 6.77472656 -1.08570313 5.48695313 -1.09765625 4.16015625 C-1 1 -1 1 0 0 Z " fill="#E6E6E6" transform="translate(309,131)"/>
<path d="M0 0 C2.4375 0.375 2.4375 0.375 5 1 C6.47193312 3.94386623 5.84936173 6.37390036 5.5625 9.625 C5.46066406 10.81351563 5.35882813 12.00203125 5.25390625 13.2265625 C5.17011719 14.14179688 5.08632813 15.05703125 5 16 C4.67 16 4.34 16 4 16 C4 11.71 4 7.42 4 3 C2.35 2.67 0.7 2.34 -1 2 C-0.67 1.34 -0.34 0.68 0 0 Z " fill="#9F9F9F" transform="translate(310,129)"/>
<path d="M0 0 C0.33 0 0.66 0 1 0 C1.05391993 1.79133978 1.09275571 3.58313899 1.125 5.375 C1.14820313 6.37273437 1.17140625 7.37046875 1.1953125 8.3984375 C1 11 1 11 -1 13 C-1 10.36 -1 7.72 -1 5 C-1.66 5 -2.32 5 -3 5 C-3 4.34 -3 3.68 -3 3 C-2.34 3 -1.68 3 -1 3 C-0.67 2.01 -0.34 1.02 0 0 Z " fill="#0D0D0D" transform="translate(307,135)"/>
<path d="M0 0 C2.625 0.375 2.625 0.375 5 1 C4.34 1.66 3.68 2.32 3 3 C2.01 3 1.02 3 0 3 C0 7.29 0 11.58 0 16 C-0.33 16 -0.66 16 -1 16 C-1.22127098 13.70954632 -1.4266504 11.41755236 -1.625 9.125 C-1.74101562 7.84882813 -1.85703125 6.57265625 -1.9765625 5.2578125 C-1.98816406 3.64519531 -1.98816406 3.64519531 -2 2 C-1.34 1.34 -0.68 0.68 0 0 Z " fill="#A0A0A0" transform="translate(321,129)"/>
<path d="M0 0 C0.99 0 1.98 0 3 0 C2.84660156 0.51046875 2.69320313 1.0209375 2.53515625 1.546875 C1.83094597 4.7749338 1.65111796 7.95418001 1.4375 11.25 C1.35371094 12.51328125 1.26992188 13.7765625 1.18359375 15.078125 C1.12300781 16.04234375 1.06242187 17.0065625 1 18 C0.67 18 0.34 18 0 18 C0 12.06 0 6.12 0 0 Z " fill="#F8F8F8" transform="translate(342,130)"/>
<path d="M0 0 C2.56616632 3.84924948 2.55097676 6.4349304 3 11 C2.34 11 1.68 11 1 11 C0.67 10.01 0.34 9.02 0 8 C-1.65 7.67 -3.3 7.34 -5 7 C-5 6.67 -5 6.34 -5 6 C-3.35 6 -1.7 6 0 6 C0 4.02 0 2.04 0 0 Z " fill="#EFEFEF" transform="translate(270,137)"/>
<path d="M0 0 C0.66 0 1.32 0 2 0 C2.33 2.97 2.66 5.94 3 9 C1.68 9 0.36 9 -1 9 C-0.67 6.03 -0.34 3.06 0 0 Z " fill="#323232" transform="translate(267,134)"/>
<path d="M0 0 C2.78211944 0.37596209 4.5879284 0.67318459 6.8125 2.4375 C8 4 8 4 8 6 C4.74456771 5.65120368 3.98126893 4.97866739 1.75 2.4375 C1.1725 1.633125 0.595 0.82875 0 0 Z " fill="#E5E5E5" transform="translate(187,135)"/>
<path d="M0 0 C1.32 0 2.64 0 4 0 C4 1.65 4 3.3 4 5 C2.68 5.33 1.36 5.66 0 6 C0 4.02 0 2.04 0 0 Z " fill="#070707" transform="translate(300,132)"/>
<path d="M0 0 C0.33 0 0.66 0 1 0 C1.03738281 0.74765625 1.07476562 1.4953125 1.11328125 2.265625 C1.17902344 3.25046875 1.24476563 4.2353125 1.3125 5.25 C1.37050781 6.22453125 1.42851562 7.1990625 1.48828125 8.203125 C2.04636524 11.25341611 2.96369776 12.70711276 5 15 C3.35 14.67 1.7 14.34 0 14 C0 9.38 0 4.76 0 0 Z " fill="#F2F2F2" transform="translate(353,133)"/>
<path d="M0 0 C0.33 0 0.66 0 1 0 C1 1.98 1 3.96 1 6 C2.65 6 4.3 6 6 6 C6 6.66 6 7.32 6 8 C3.69 8 1.38 8 -1 8 C-0.67 5.36 -0.34 2.72 0 0 Z " fill="#ECECEC" transform="translate(423,140)"/>
<path d="M0 0 C0.33 0 0.66 0 1 0 C1 1.98 1 3.96 1 6 C2.65 6 4.3 6 6 6 C6 6.66 6 7.32 6 8 C3.69 8 1.38 8 -1 8 C-0.67 5.36 -0.34 2.72 0 0 Z " fill="#ECECEC" transform="translate(378,140)"/>
<path d="M0 0 C2.375 0.1875 2.375 0.1875 5 1 C6.3125 3.5625 6.3125 3.5625 7 6 C2.32307692 4.52307692 2.32307692 4.52307692 0.6875 1.875 C0.460625 1.25625 0.23375 0.6375 0 0 Z " fill="#E6E6E6" transform="translate(208,132)"/>
<path d="M0 0 C0.66 0.99 1.32 1.98 2 3 C1.01 3.33 0.02 3.66 -1 4 C-1 4.66 -1 5.32 -1 6 C-1.99 6 -2.98 6 -4 6 C-3.6875 4.125 -3.6875 4.125 -3 2 C-2.01 1.34 -1.02 0.68 0 0 Z " fill="#A3A3A3" transform="translate(10,142)"/>
<path d="M0 0 C1.9375 0.75 1.9375 0.75 4 2 C4.75 4.125 4.75 4.125 5 6 C2.69 5.01 0.38 4.02 -2 3 C-1.34 2.34 -0.68 1.68 0 1 C0 0.67 0 0.34 0 0 Z " fill="#BCBCBC" transform="translate(214,135)"/>
<path d="M0 0 C0.99 0.33 1.98 0.66 3 1 C3 2.98 3 4.96 3 7 C2.34 7 1.68 7 1 7 C0.67 4.69 0.34 2.38 0 0 Z " fill="#B8B8B8" transform="translate(396,129)"/>
<path d="M0 0 C0.99 0 1.98 0 3 0 C3 1.98 3 3.96 3 6 C2.01 6 1.02 6 0 6 C0 4.02 0 2.04 0 0 Z " fill="#030303" transform="translate(389,132)"/>
<path d="M0 0 C0.99 0 1.98 0 3 0 C3 1.98 3 3.96 3 6 C2.01 6 1.02 6 0 6 C0 4.02 0 2.04 0 0 Z " fill="#030303" transform="translate(256,132)"/>
<path d="M0 0 C3.875 1.875 3.875 1.875 5 3 C5.04063832 4.66617115 5.042721 6.33388095 5 8 C2.74754119 5.31158141 1.11786042 3.35358125 0 0 Z " fill="#E2E2E2" transform="translate(370,138)"/>
<path d="M0 0 C1.67542976 0.28604898 3.34385343 0.61781233 5 1 C5.33 2.32 5.66 3.64 6 5 C5.34 5 4.68 5 4 5 C3.67 4.34 3.34 3.68 3 3 C0.98330173 1.86649466 0.98330173 1.86649466 -1 1 C-0.67 0.67 -0.34 0.34 0 0 Z " fill="#CDCDCD" transform="translate(433,129)"/>
</svg>
