<?xml version="1.0" standalone="no"?>
<!DOCTYPE svg PUBLIC "-//W3C//DTD SVG 20010904//EN"
 "http://www.w3.org/TR/2001/REC-SVG-20010904/DTD/svg10.dtd">
<svg version="1.0" xmlns="http://www.w3.org/2000/svg"
 width="945.000000pt" height="523.000000pt" viewBox="0 0 945.000000 523.000000"
 preserveAspectRatio="xMidYMid meet">

<g transform="translate(0.000000,523.000000) scale(0.100000,-0.100000)"
fill="#000000" stroke="none">
<path d="M1425 3949 c-22 -4 -50 -5 -61 -2 -14 3 -23 -1 -27 -11 -5 -13 -11
-14 -31 -4 -17 7 -30 8 -38 1 -7 -6 -46 -10 -86 -11 -63 -1 -72 1 -62 13 11
13 4 15 -44 15 -45 0 -56 -3 -56 -16 0 -9 7 -22 15 -28 13 -10 14 -18 1 -66
-24 -99 -26 -116 -10 -139 12 -16 13 -25 5 -35 -7 -8 -10 -47 -7 -102 2 -49
-1 -106 -7 -127 -9 -31 -8 -41 6 -54 14 -15 14 -18 -1 -41 -15 -23 -15 -25 1
-37 20 -14 23 -51 5 -57 -9 -3 -12 -37 -10 -121 2 -83 -1 -117 -9 -117 -15 0
-1 -192 15 -203 8 -5 7 -11 -4 -20 -16 -12 -18 -62 -8 -227 3 -36 1 -83 -3
-104 -9 -49 -3 -64 24 -68 16 -2 23 -11 25 -32 4 -35 -13 -57 -22 -28 -8 24
-36 38 -36 18 0 -7 7 -19 15 -26 14 -11 13 -14 -1 -25 -13 -9 -14 -16 -6 -31
7 -13 8 -44 2 -89 -7 -59 -6 -73 7 -88 13 -13 18 -15 25 -5 4 8 8 -3 8 -28 0
-22 -4 -44 -10 -50 -6 -6 -7 -43 -1 -107 7 -74 6 -112 -5 -164 -8 -37 -14 -94
-14 -127 0 -51 2 -57 15 -46 13 11 15 7 15 -24 0 -20 6 -38 13 -41 12 -4 258
-12 597 -21 155 -3 190 -2 219 12 26 13 48 14 100 9 36 -5 135 -7 220 -6 112
1 157 -2 162 -11 6 -9 12 -8 26 5 12 10 27 14 41 10 12 -3 29 0 37 7 13 11 20
11 40 0 17 -9 47 -11 100 -7 61 4 77 3 82 -9 7 -19 49 -18 57 2 5 12 14 15 39
10 79 -17 109 -18 117 -5 6 9 12 10 22 2 15 -12 249 -15 268 -3 7 4 27 4 44
-1 17 -4 72 -10 122 -13 78 -5 93 -3 107 12 14 15 16 112 21 842 3 454 5 848
3 875 -3 67 0 225 7 480 3 115 4 217 1 226 -9 28 -180 43 -196 17 -5 -8 -19
-8 -51 0 -23 6 -83 11 -133 11 -49 -1 -160 -1 -245 0 -85 0 -168 0 -185 -1
-16 -1 -81 2 -142 7 -83 6 -113 5 -113 -4 0 -6 -9 -11 -20 -11 -11 0 -20 5
-20 10 0 8 -32 9 -97 4 -54 -4 -109 -6 -123 -5 -79 8 -138 3 -173 -13 -44 -21
-143 -18 -157 5 -8 11 -15 11 -45 0 -24 -8 -56 -11 -93 -6 -31 3 -82 8 -112
10 -30 2 -71 8 -90 12 -19 5 -53 6 -75 2z m295 -628 c0 -5 -19 -16 -42 -26
-50 -19 -88 -52 -88 -74 0 -9 14 -45 31 -81 39 -78 41 -131 9 -165 -46 -49
-92 -16 -69 48 10 29 8 39 -16 86 -47 93 -31 176 38 206 36 16 137 20 137 6z
m10 -135 c0 -8 9 -18 21 -21 11 -4 36 -20 55 -37 43 -38 46 -81 8 -138 -29
-44 -31 -44 -68 -30 -31 12 -33 32 -5 71 l20 29 -35 42 c-44 51 -49 98 -9 98
7 0 13 -6 13 -14z m589 -228 c40 -24 135 -95 166 -125 11 -10 128 -108 260
-218 132 -110 292 -244 355 -298 63 -54 145 -124 182 -155 61 -52 83 -79 58
-70 -31 10 -653 476 -825 617 -159 131 -238 191 -252 191 -6 0 -107 -77 -224
-171 -118 -94 -231 -180 -252 -190 -74 -39 -92 7 -27 67 38 35 40 41 40 94 0
69 3 67 -142 62 l-98 -4 0 -179 c0 -131 -4 -189 -14 -213 -15 -36 -67 -78
-244 -199 -106 -73 -133 -87 -131 -69 0 7 99 97 237 215 37 32 70 69 74 83 4
14 2 97 -3 185 -10 154 -9 162 11 204 24 50 26 51 180 59 118 6 171 -6 193
-44 9 -15 17 -37 17 -48 0 -12 4 -24 10 -27 5 -3 53 29 106 72 249 201 253
203 323 161z m18 -220 c61 -52 102 -85 352 -285 394 -317 434 -350 429 -362
-3 -8 -111 63 -298 196 -162 116 -452 328 -498 365 -44 34 -57 40 -71 31 -21
-13 -282 -220 -486 -386 -82 -67 -169 -137 -193 -154 -112 -86 -192 -98 -152
-23 6 10 38 40 73 67 34 26 123 97 198 158 75 60 204 163 287 229 83 65 159
126 169 135 79 72 129 79 190 29z m-1302 -106 c-8 -8 -26 39 -19 50 5 8 11 1
16 -17 4 -16 6 -31 3 -33z"/>
<path d="M4060 3721 c-22 -6 -26 -14 -33 -66 -4 -33 -6 -363 -5 -733 3 -565 5
-674 17 -681 38 -24 194 -24 231 -1 13 8 16 64 20 332 l5 323 175 5 175 5 8
65 c10 76 1 164 -17 179 -7 6 -82 12 -177 13 l-164 3 0 147 c0 80 3 150 8 154
4 4 87 10 185 13 l177 6 3 109 c2 71 -1 113 -9 122 -9 11 -63 14 -293 13 -154
-1 -292 -4 -306 -8z"/>
<path d="M4944 3720 c-13 -5 -24 -21 -28 -40 -7 -40 -6 -954 3 -1255 l6 -220
120 3 c66 2 126 9 133 14 10 9 12 153 10 739 -3 632 -5 730 -18 742 -18 17
-194 30 -226 17z"/>
<path d="M6818 3715 c-109 -30 -219 -129 -258 -233 -46 -118 -43 -266 7 -351
27 -46 229 -254 325 -334 75 -63 101 -117 100 -208 0 -60 -4 -75 -27 -105 -36
-47 -85 -67 -167 -67 -62 0 -71 3 -138 46 -58 37 -76 44 -91 36 -25 -13 -61
-134 -57 -190 3 -41 6 -46 48 -66 64 -32 219 -57 305 -49 251 23 395 181 383
424 -3 72 -10 100 -36 155 -52 113 -110 177 -321 358 -89 77 -114 121 -119
209 -4 78 19 123 73 146 50 20 90 17 155 -12 32 -14 66 -24 75 -22 11 2 27 31
46 82 48 132 39 154 -71 180 -78 19 -168 19 -232 1z"/>
<path d="M5458 3708 c-15 -12 -17 -82 -18 -748 -1 -404 -2 -741 -1 -747 1 -10
31 -13 116 -13 133 0 138 3 135 93 -1 29 -1 150 -1 270 1 169 4 218 13 215 15
-5 66 -106 178 -348 44 -96 86 -186 93 -200 13 -25 14 -25 147 -25 133 0 135
0 138 23 3 21 -57 149 -249 533 l-48 97 83 84 c103 105 141 178 151 288 20
228 -99 427 -283 475 -74 20 -430 21 -454 3z m365 -252 c48 -20 93 -76 107
-136 15 -61 1 -152 -32 -211 -24 -44 -86 -85 -140 -94 -67 -12 -68 -7 -68 218
0 120 4 205 10 217 13 24 73 27 123 6z"/>
<path d="M7509 3703 c-19 -22 -19 -184 0 -206 11 -14 33 -17 117 -17 75 0 106
-4 117 -14 11 -12 13 -106 9 -594 -3 -318 -2 -600 2 -626 l7 -46 109 0 c98 0
110 2 120 19 6 13 10 228 10 630 0 477 3 612 13 618 6 4 64 10 127 13 l115 5
6 95 c4 52 2 105 -2 118 l-9 22 -364 0 c-326 0 -365 -2 -377 -17z"/>
<path d="M4022 1793 c3 -115 6 -138 18 -138 11 0 16 13 18 48 2 26 6 47 10 47
4 0 15 -20 25 -44 19 -46 43 -64 61 -46 7 7 3 24 -12 55 -26 54 -27 68 -7 85
16 13 20 76 7 96 -13 20 -50 34 -87 34 l-36 0 3 -137z m76 75 c16 -16 15 -34
-4 -52 -20 -21 -34 -12 -34 23 0 40 15 52 38 29z"/>
<path d="M4266 1918 c-4 -12 -19 -80 -45 -206 -8 -36 -6 -44 7 -49 10 -4 21 2
30 15 18 27 48 28 62 2 6 -11 20 -20 31 -20 23 0 23 2 -16 170 -19 82 -25 95
-43 98 -12 2 -24 -3 -26 -10z m34 -148 c0 -16 -4 -30 -10 -30 -5 0 -10 14 -10
30 0 17 5 30 10 30 6 0 10 -13 10 -30z"/>
<path d="M4415 1920 c-8 -13 13 -40 28 -37 8 1 13 -32 15 -108 1 -60 6 -113
10 -117 20 -20 32 15 39 117 6 88 11 110 23 110 8 0 16 10 18 23 3 21 0 22
-62 22 -36 0 -68 -5 -71 -10z"/>
<path d="M4600 1795 l0 -135 55 0 c52 0 55 1 55 24 0 21 -6 25 -32 28 -29 3
-33 6 -33 33 0 25 5 31 30 35 22 4 30 11 30 25 0 15 -8 21 -33 23 -28 3 -33 7
-30 25 2 15 12 23 33 27 21 4 31 11 33 28 3 21 0 22 -52 22 l-56 0 0 -135z"/>
<path d="M4860 1918 c-3 -85 0 -250 5 -258 14 -22 34 4 37 48 l3 47 22 -46
c22 -48 41 -63 62 -49 10 5 6 20 -14 59 l-26 52 21 26 c46 58 7 133 -70 133
-25 0 -40 -5 -40 -12z m78 -72 c3 -26 -10 -45 -30 -46 -5 0 -8 18 -8 41 0 33
3 40 18 37 10 -2 18 -14 20 -32z"/>
<path d="M5084 1896 c-31 -31 -34 -40 -34 -90 0 -98 32 -146 98 -146 106 0
138 205 40 256 -42 22 -67 17 -104 -20z m102 -31 c20 -31 16 -141 -7 -156 -23
-14 -48 -10 -70 12 -18 18 -21 30 -17 79 2 32 10 65 17 74 20 24 58 20 77 -9z"/>
<path d="M5350 1917 c-52 -26 -75 -121 -46 -191 37 -88 143 -87 177 1 27 71
-3 173 -57 193 -33 13 -44 12 -74 -3z m74 -46 c41 -45 27 -155 -21 -167 -40
-10 -67 24 -67 85 0 83 47 127 88 82z"/>
<path d="M5539 1908 c-1 -21 -1 -190 1 -230 0 -11 8 -18 20 -18 18 0 20 7 20
59 l0 60 33 3 c24 2 32 8 32 23 0 15 -8 21 -33 23 -28 3 -33 7 -30 25 2 15 12
23 33 27 21 4 31 11 33 28 3 21 0 22 -52 22 -51 0 -56 -2 -57 -22z"/>
<path d="M5699 1910 c0 -11 0 -65 0 -120 0 -55 0 -107 0 -116 1 -10 8 -14 23
-12 21 3 22 7 21 123 -1 66 -2 126 -2 133 -1 21 -41 14 -42 -8z"/>
<path d="M5790 1796 c0 -129 1 -136 20 -136 18 0 20 7 20 65 0 36 4 65 8 65 5
0 21 -29 37 -65 20 -47 32 -65 46 -65 18 0 19 9 19 135 0 128 -1 135 -20 135
-18 0 -20 -7 -20 -72 0 -82 -7 -81 -43 7 -18 43 -31 61 -46 63 -20 3 -21 0
-21 -132z"/>
<path d="M6060 1917 c-62 -32 -88 -122 -54 -193 22 -47 50 -64 102 -64 l43 0
-3 68 -3 67 -32 3 c-27 3 -33 0 -33 -16 0 -11 7 -22 15 -26 16 -6 21 -41 6
-50 -29 -18 -61 31 -61 93 0 52 28 85 71 86 27 0 34 4 34 20 0 25 -47 32 -85
12z"/>
<path d="M6328 1918 c-46 -37 -41 -84 14 -136 51 -48 49 -77 -4 -76 -37 1 -59
-19 -40 -38 14 -14 80 -12 97 2 45 37 38 80 -22 141 -40 42 -42 75 -3 73 28
-1 41 12 33 33 -6 16 -54 17 -75 1z"/>
<path d="M6475 1917 c-3 -7 -4 -67 -3 -133 l3 -119 55 0 c48 0 55 2 55 20 0
15 -8 21 -32 23 -30 3 -33 6 -33 38 0 31 2 34 30 34 25 0 30 4 30 25 0 21 -5
25 -30 25 -25 0 -30 4 -30 25 0 18 6 25 20 26 11 1 26 2 33 3 6 0 12 10 12 21
0 17 -8 20 -53 23 -37 2 -54 -1 -57 -11z"/>
<path d="M6637 1923 c-4 -3 -7 -64 -7 -134 0 -101 3 -128 14 -132 22 -9 37 17
31 51 -8 48 11 47 31 -2 19 -45 51 -66 60 -41 3 7 -4 31 -15 54 -22 43 -27 71
-12 71 14 0 31 60 25 86 -3 12 -17 30 -30 38 -23 16 -85 22 -97 9z m81 -74 c3
-27 -20 -55 -36 -45 -5 3 -8 20 -7 38 4 42 2 40 23 36 10 -2 18 -14 20 -29z"/>
<path d="M6828 1925 c-3 -3 9 -63 26 -133 30 -119 34 -127 57 -127 22 0 26 8
56 125 19 73 29 128 23 134 -20 20 -39 -6 -56 -78 -10 -42 -21 -76 -24 -76 -3
0 -12 30 -19 68 -8 37 -18 73 -24 80 -10 12 -30 16 -39 7z"/>
<path d="M7045 1886 c-4 -24 -5 -83 -3 -132 3 -87 3 -89 28 -89 22 0 25 4 24
33 -4 238 -3 232 -23 232 -16 0 -21 -9 -26 -44z"/>
<path d="M7205 1919 c-42 -21 -60 -60 -60 -132 0 -65 2 -70 33 -98 40 -36 102
-42 102 -9 0 14 -7 20 -21 20 -34 0 -57 18 -69 55 -22 66 7 125 61 125 24 0
29 4 29 25 0 21 -5 25 -27 24 -16 0 -37 -5 -48 -10z"/>
<path d="M7330 1795 l0 -135 55 0 c52 0 55 1 55 24 0 21 -6 25 -32 28 -29 3
-33 6 -33 33 0 25 5 31 30 35 21 4 30 11 30 25 0 14 -9 21 -30 25 -21 4 -30
11 -30 25 0 14 9 21 30 25 21 4 31 11 33 28 3 21 0 22 -52 22 l-56 0 0 -135z"/>
<path d="M7515 1906 c-36 -36 -32 -69 15 -120 56 -61 52 -107 -8 -85 -16 6
-24 5 -28 -6 -10 -24 5 -35 46 -35 43 0 80 29 80 62 0 28 -27 76 -51 88 -22
12 -39 48 -32 68 3 7 17 11 32 10 20 -2 26 1 26 17 0 32 -49 32 -80 1z"/>
<path d="M7760 1796 l0 -136 55 0 c48 0 55 3 55 19 0 14 -8 21 -27 23 l-28 3
-5 110 c-5 105 -6 110 -27 113 -23 3 -23 3 -23 -132z"/>
<path d="M7920 1911 c0 -12 9 -21 25 -25 l25 -6 -2 -108 c-3 -104 -2 -107 20
-110 22 -3 22 -2 22 107 0 84 3 111 13 111 19 0 36 20 30 36 -4 10 -24 14 -69
14 -56 0 -64 -2 -64 -19z"/>
<path d="M8104 1917 c-2 -7 -3 -67 -2 -133 l3 -119 32 -3 c46 -5 99 23 114 60
16 40 17 120 0 151 -7 13 -25 31 -41 40 -34 20 -99 22 -106 4z m101 -71 c23
-55 2 -136 -35 -136 -18 0 -20 7 -20 85 0 79 1 85 21 85 13 0 25 -11 34 -34z"/>
</g>
</svg>
