<?xml version="1.0" standalone="no"?>
<!DOCTYPE svg PUBLIC "-//W3C//DTD SVG 20010904//EN"
 "http://www.w3.org/TR/2001/REC-SVG-20010904/DTD/svg10.dtd">
<svg version="1.0" xmlns="http://www.w3.org/2000/svg"
 width="544.000000pt" height="402.000000pt" viewBox="0 0 544.000000 402.000000"
 preserveAspectRatio="xMidYMid meet">

<g transform="translate(0.000000,402.000000) scale(0.100000,-0.100000)"
fill="#000000" stroke="none">
<path d="M140 2020 l0 -1860 2575 0 2575 0 0 1860 0 1860 -2575 0 -2575 0 0
-1860z m2684 1464 c14 -6 16 -79 16 -733 0 -807 0 -807 -66 -931 -46 -87 -143
-181 -229 -222 -122 -57 -159 -60 -710 -56 -484 4 -502 4 -566 26 -188 63
-330 228 -359 418 -6 38 -9 152 -8 254 l3 185 172 3 172 2 3 -214 3 -214 31
-39 c60 -75 40 -73 583 -73 463 0 486 1 525 20 23 11 52 36 66 57 l25 37 3
573 2 573 -452 2 -453 3 -3 155 c-1 85 0 160 2 167 4 10 126 13 615 13 335 0
616 -3 625 -6z m2226 -179 l0 -175 -528 0 c-503 0 -531 -1 -602 -21 -111 -30
-185 -74 -270 -159 -81 -81 -135 -169 -166 -275 -27 -90 -25 -250 3 -340 51
-162 171 -303 316 -375 130 -64 174 -70 560 -70 l337 0 0 185 0 185 -310 0
-310 0 0 175 0 175 485 0 485 0 0 -536 0 -535 -552 3 -553 4 -96 26 c-318 86
-561 303 -673 601 -65 172 -77 394 -33 568 95 369 384 645 752 719 80 16 150
18 623 19 l532 1 0 -175z m168 -2493 l2 -572 -2498 0 c-1374 0 -2501 2 -2503
4 -2 2 -3 261 -1 575 l2 571 2498 -2 2497 -3 3 -573z"/>
<path d="M1004 1131 c-2 -2 -4 -123 -4 -267 0 -260 0 -263 -22 -278 -18 -13
-55 -16 -193 -16 -216 0 -215 -1 -215 111 l0 79 -60 0 -60 0 0 -85 c0 -104 20
-152 82 -192 l42 -28 205 0 c232 0 258 6 309 73 l27 35 3 286 3 286 -56 0
c-31 0 -59 -2 -61 -4z"/>
<path d="M2740 923 c0 -124 -4 -213 -9 -213 -5 0 -131 94 -280 210 l-271 209
0 -340 0 -340 58 3 57 3 5 213 5 213 270 -210 c149 -116 273 -210 277 -211 4
0 7 150 7 334 l0 334 -59 4 -60 3 0 -212z"/>
<path d="M4370 1132 c0 -2 46 -63 103 -135 57 -73 120 -154 140 -181 l37 -49
0 -153 0 -154 60 0 60 0 0 161 0 160 135 173 c74 96 135 175 135 177 0 2 -34
3 -75 1 l-76 -4 -91 -118 -91 -118 -90 116 c-50 65 -92 119 -94 121 -4 5 -153
7 -153 3z"/>
<path d="M1429 1115 c-92 -33 -154 -92 -198 -185 -36 -77 -37 -202 -1 -275
107 -220 392 -268 556 -93 69 74 89 125 89 233 0 80 -3 97 -30 148 -36 73
-109 139 -181 166 -64 24 -178 27 -235 6z m206 -124 c74 -33 125 -114 125
-196 0 -187 -219 -288 -360 -168 -80 69 -101 164 -56 258 27 57 56 87 106 109
48 21 136 20 185 -3z"/>
<path d="M1957 793 l3 -338 56 0 55 0 2 338 2 337 -60 0 -60 0 2 -337z"/>
<path d="M3061 1112 c-19 -9 -48 -34 -65 -55 l-31 -39 -3 -201 c-4 -215 2
-253 42 -299 54 -61 65 -63 361 -63 l270 0 3 57 3 57 -266 3 c-314 4 -298 -3
-293 116 l3 73 215 2 215 2 3 58 c2 41 -1 57 -10 57 -7 0 -106 1 -220 3 l-208
1 0 47 c0 80 -1 80 296 82 l259 2 3 58 3 57 -273 0 c-240 0 -277 -2 -307 -18z"/>
<path d="M3732 793 l3 -338 58 -3 57 -3 0 154 c0 115 3 156 13 159 6 2 49 2
93 -1 58 -4 88 -11 101 -23 11 -10 48 -73 83 -140 34 -68 67 -129 73 -135 6
-8 34 -13 74 -13 l64 0 -81 157 c-44 86 -80 157 -80 158 0 2 13 5 29 8 43 9
97 61 117 112 29 78 1 167 -69 219 -27 20 -43 21 -283 24 l-254 3 2 -338z
m479 201 c25 -23 24 -66 -2 -90 -19 -17 -38 -19 -188 -19 l-166 0 -3 54 c-2
29 -1 59 1 65 3 8 56 10 172 9 142 -2 170 -5 186 -19z"/>
</g>
</svg>
